<svg width="54" height="59" viewBox="0 0 54 59" fill="none" xmlns="http://www.w3.org/2000/svg">
<path d="M0 10.2371C0 7.33626 0.972428 4.5192 2.76186 2.2361C3.86821 0.824544 5.5621 0 7.35556 0H41.0912C48.2205 0 54 5.77945 54 12.9088V28.1913C54 36.9166 42.5299 40.1291 37.998 32.673C37.4426 31.7591 37.0618 30.75 36.8752 29.6969L35.8085 23.6777C34.8814 18.4458 30.3339 14.6332 25.0205 14.6332H21.2253C17.2704 14.6332 14.0643 17.8393 14.0643 21.7942V29.2182C14.0643 36.2303 4.9256 38.923 1.1235 33.0312C0.390085 31.8947 0 30.5708 0 29.2182V19.3034V10.2371Z" fill="#304FFE"/>
<rect x="6.75079" y="38.7955" width="34.7685" height="9.27441" rx="4.6372" fill="#304FFE" stroke="#5529F2"/>
<rect x="6.75079" y="38.7955" width="34.7685" height="9.27441" rx="4.6372" fill="#304FFE" stroke="#5529F2"/>
</svg>
